<?xml version="1.0" standalone="no"?>
<!DOCTYPE svg PUBLIC "-//W3C//DTD SVG 20010904//EN"
 "http://www.w3.org/TR/2001/REC-SVG-20010904/DTD/svg10.dtd">
<svg version="1.0" xmlns="http://www.w3.org/2000/svg"
 width="260.000000pt" height="260.000000pt" viewBox="0 0 260.000000 260.000000"
 preserveAspectRatio="xMidYMid meet">
<metadata>
Created by potrace 1.11, written by Peter Selinger 2001-2013
</metadata>
<g transform="translate(0.000000,260.000000) scale(0.100000,-0.100000)"
fill="#000000" stroke="none">
<path d="M0 1300 l0 -1300 1300 0 1300 0 0 1300 0 1300 -1300 0 -1300 0 0
-1300z m396 674 c57 -27 64 -56 64 -262 0 -101 -5 -192 -11 -210 -18 -51 -56
-62 -218 -62 l-141 0 0 273 c0 151 3 277 8 282 14 15 258 -2 298 -21z m276
-206 c3 -212 5 -233 20 -236 16 -3 18 15 20 230 l3 233 78 3 77 3 0 -240 0
-239 -26 -32 c-39 -46 -74 -60 -151 -60 -52 0 -78 6 -108 23 -70 39 -75 60
-75 320 l0 227 80 0 80 0 2 -232z m435 107 l42 -120 0 123 1 122 65 0 65 0 0
-280 0 -280 -70 0 -69 0 -37 115 c-20 63 -38 115 -40 115 -2 0 -3 -21 -3 -47
1 -27 1 -78 0 -115 l-1 -68 -65 0 -65 0 0 280 0 281 67 -3 68 -3 42 -120z
m472 115 c52 -7 71 -15 95 -40 l31 -30 0 -210 0 -210 -28 -27 c-27 -28 -28
-28 -182 -31 l-155 -3 0 274 c0 150 3 277 7 280 9 10 157 8 232 -3z m449 -52
l3 -58 -56 0 -55 0 0 -50 0 -50 50 0 50 0 0 -55 0 -55 -50 0 -50 0 0 -60 0
-60 60 0 60 0 0 -55 0 -55 -140 0 -140 0 0 280 0 281 133 -3 132 -3 3 -57z
m334 43 c45 -17 68 -66 68 -141 0 -74 -3 -81 -45 -103 -16 -9 -24 -16 -16 -17
8 0 25 -10 38 -22 22 -20 23 -29 23 -140 l0 -118 -75 0 -75 0 0 120 c0 66 -2
120 -4 120 -2 0 -11 3 -20 6 -14 5 -16 -9 -16 -120 l0 -126 -80 0 -80 0 0 281
0 282 128 -6 c70 -3 139 -10 154 -16z m-2091 -603 c0 -7 8 -62 18 -123 l17
-110 12 85 c7 47 15 102 18 123 l6 38 101 -3 102 -3 3 -277 2 -278 -70 0 -70
0 -1 168 -1 167 -13 -75 c-7 -41 -18 -117 -25 -167 l-13 -93 -53 0 c-49 0 -54
2 -54 22 0 23 -26 195 -40 263 -5 28 -8 -11 -9 -122 l-1 -163 -70 0 -70 0 0
273 c0 151 3 277 7 280 3 4 51 7 105 7 71 0 98 -3 99 -12z m497 -270 l2 -278
-80 0 -80 0 0 280 0 281 78 -3 77 -3 3 -277z m322 222 l0 -60 -50 0 -50 0 0
-50 0 -50 45 0 45 0 0 -55 0 -55 -45 0 -45 0 0 -115 0 -115 -85 0 -85 0 0 273
c0 151 3 277 7 280 3 4 64 7 135 7 l128 0 0 -60z m308 3 l-3 -58 -52 -3 -53
-3 0 -49 0 -49 48 -3 47 -3 0 -50 0 -50 -47 -3 -48 -3 0 -115 0 -114 -80 0
-80 0 0 280 0 280 135 0 136 0 -3 -57z m192 -166 l0 -222 45 3 c40 4 45 2 50
-21 4 -13 5 -39 3 -58 l-3 -34 -127 -3 -128 -3 0 281 0 280 80 0 80 0 0 -223z
m290 -57 l0 -280 -80 0 -80 0 0 280 0 280 80 0 80 0 0 -280z m234 160 l41
-115 3 118 3 117 64 0 65 0 0 -280 0 -281 -71 3 -71 3 -39 120 -38 120 -1
-122 0 -123 -65 0 -65 0 0 280 0 281 66 -3 66 -3 42 -115z m406 85 l0 -35
-100 0 -100 0 0 35 0 35 100 0 100 0 0 -35z m0 -84 c0 -24 -6 -32 -37 -44
l-38 -16 38 0 c34 -1 37 -3 37 -28 l0 -28 -97 1 -98 1 -3 30 c-3 26 1 31 30
40 l33 11 -32 1 c-30 1 -33 4 -33 31 l0 30 100 0 100 0 0 -29z m-15 -156 c47
-46 22 -123 -40 -128 -27 -2 -30 1 -33 31 -3 30 -1 32 27 32 17 0 31 5 31 10
0 6 -30 10 -70 10 -40 0 -70 -4 -70 -10 0 -5 11 -10 25 -10 22 0 25 -4 25 -35
0 -38 -5 -40 -45 -25 -35 13 -50 55 -36 102 13 41 22 45 104 47 49 1 62 -3 82
-24z m-69 -232 c-5 -49 -12 -63 -41 -90 -19 -18 -42 -33 -50 -33 -20 0 -19 29
2 52 15 17 15 18 0 18 -14 0 -17 10 -17 55 l0 55 56 0 57 0 -7 -57z m-2306
-168 c10 -12 10 -18 0 -30 -7 -8 -19 -15 -26 -15 -8 0 -14 -9 -14 -20 0 -11
-4 -20 -10 -20 -5 0 -10 23 -10 50 0 46 2 50 24 50 13 0 29 -7 36 -15z m171
-31 c18 -44 18 -75 -1 -44 -12 19 -37 21 -51 4 -24 -29 -27 -12 -7 36 11 28
25 50 30 50 5 0 18 -21 29 -46z m197 19 c3 -17 -3 -24 -22 -29 -17 -4 -26 -13
-26 -25 0 -10 -4 -19 -10 -19 -5 0 -10 23 -10 51 l0 50 33 -3 c24 -2 33 -8 35
-25z m172 17 c0 -5 -9 -10 -20 -10 -11 0 -20 -4 -20 -10 0 -5 9 -10 20 -10 11
0 20 -4 20 -10 0 -5 -9 -10 -20 -10 -12 0 -20 -7 -20 -16 0 -10 6 -14 15 -11
8 4 17 2 20 -3 4 -6 -7 -10 -24 -10 -30 0 -31 1 -31 50 0 49 1 50 30 50 17 0
30 -4 30 -10z m170 -5 c10 -12 10 -19 2 -27 -8 -8 -6 -17 5 -34 9 -14 11 -24
5 -24 -6 0 -16 9 -22 20 -6 11 -15 20 -20 20 -6 0 -10 -9 -10 -20 0 -11 -5
-20 -10 -20 -10 0 -12 75 -3 93 7 13 40 8 53 -8z m365 5 c4 -6 -8 -10 -29 -10
-26 0 -36 -5 -41 -20 -10 -31 13 -53 47 -46 32 6 39 -9 7 -17 -28 -7 -67 11
-75 35 -9 30 22 68 56 68 16 0 32 -4 35 -10z m209 -9 c25 -27 17 -63 -17 -79
-24 -12 -31 -11 -53 2 -26 18 -33 63 -12 84 18 18 63 14 82 -7z m166 -3 l17
-22 12 22 c19 36 31 25 31 -28 0 -27 -4 -50 -10 -50 -5 0 -10 14 -10 31 0 28
-2 30 -16 18 -14 -11 -18 -10 -27 6 -11 18 -12 16 -18 -20 -4 -30 -7 -36 -13
-22 -8 17 0 87 10 87 3 0 14 -10 24 -22z m244 6 c7 -19 -10 -44 -30 -44 -8 0
-14 -9 -14 -20 0 -11 -4 -20 -10 -20 -5 0 -10 23 -10 50 0 48 1 50 29 50 17 0
31 -6 35 -16z m169 -27 c20 -49 22 -69 4 -45 -15 19 -45 18 -57 -2 -5 -8 -12
-12 -15 -9 -7 8 32 99 42 99 4 0 16 -19 26 -43z m180 7 l33 -36 2 33 c4 53 12
47 12 -9 0 -29 -4 -52 -9 -52 -6 0 -23 17 -38 37 l-28 37 -6 -40 c-6 -38 -6
-37 -8 14 0 28 1 52 4 52 3 0 20 -16 38 -36z m193 19 c12 -17 14 -17 28 2 8
11 18 17 22 13 4 -5 0 -16 -9 -26 -10 -10 -17 -31 -17 -45 0 -15 -4 -27 -10
-27 -5 0 -10 13 -10 29 0 16 -7 34 -15 41 -15 13 -20 30 -9 30 4 0 13 -8 20
-17z"/>
<path d="M250 1720 c0 -170 1 -180 19 -180 10 0 22 7 25 16 3 9 6 85 6 169 0
142 -2 155 -19 165 -11 5 -22 10 -25 10 -3 0 -6 -81 -6 -180z"/>
<path d="M1500 1720 c0 -170 1 -180 19 -180 10 0 22 7 25 16 3 9 6 85 6 169 0
142 -2 155 -19 165 -11 5 -22 10 -25 10 -3 0 -6 -81 -6 -180z"/>
<path d="M2240 1839 c0 -52 2 -60 18 -57 22 4 31 96 10 109 -24 16 -28 9 -28
-52z"/>
<path d="M90 700 c0 -5 5 -10 10 -10 6 0 10 5 10 10 0 6 -4 10 -10 10 -5 0
-10 -4 -10 -10z"/>
<path d="M266 691 c-4 -7 -5 -15 -2 -18 9 -9 19 4 14 18 -4 11 -6 11 -12 0z"/>
<path d="M450 700 c0 -5 7 -10 15 -10 8 0 15 5 15 10 0 6 -7 10 -15 10 -8 0
-15 -4 -15 -10z"/>
<path d="M800 700 c0 -5 7 -10 15 -10 8 0 15 5 15 10 0 6 -7 10 -15 10 -8 0
-15 -4 -15 -10z"/>
<path d="M1343 694 c-8 -22 10 -49 32 -49 22 0 40 27 32 49 -8 21 -56 21 -64
0z"/>
<path d="M1780 700 c0 -5 7 -10 15 -10 8 0 15 5 15 10 0 6 -7 10 -15 10 -8 0
-15 -4 -15 -10z"/>
<path d="M1956 685 c-3 -9 0 -15 9 -15 9 0 12 6 9 15 -4 8 -7 15 -9 15 -2 0
-5 -7 -9 -15z"/>
</g>
</svg>
